<svg width="400" height="160" viewBox="0 0 400 160" fill="none" xmlns="http://www.w3.org/2000/svg">
<rect width="400" height="160" fill="#080E20"/>
<path d="M240.55 58.8874C239.2 58.4053 237.85 57.95 236.5 57.5214C236.725 56.5304 236.925 55.5394 237.125 54.5484C240.2 38.5849 238.175 25.7553 231.35 21.5234C224.775 17.4789 214.05 21.6841 203.2 31.8085C202.125 32.7995 201.075 33.8441 200.075 34.8887C199.4 34.1923 198.7 33.4959 198 32.8263C186.625 22.0055 175.225 17.4521 168.4 21.7108C161.85 25.7821 159.9 37.8618 162.65 52.9681C162.925 54.468 163.225 55.9412 163.575 57.4411C161.975 57.9232 160.4 58.4589 158.925 59.0213C145.575 63.9764 136 71.7975 136 79.8863C136 88.243 146.2 96.6265 160.075 101.715C161.2 102.117 162.325 102.519 163.475 102.867C163.1 104.474 162.775 106.055 162.475 107.688C159.85 122.554 161.9 134.339 168.45 138.383C175.2 142.562 186.55 138.276 197.6 127.911C198.475 127.08 199.35 126.223 200.225 125.312C201.325 126.464 202.475 127.562 203.625 128.634C214.325 138.49 224.9 142.481 231.425 138.437C238.175 134.258 240.375 121.589 237.525 106.162C237.3 104.983 237.05 103.778 236.775 102.546C237.575 102.305 238.35 102.037 239.125 101.769C253.55 96.6533 264 88.3769 264 79.8863C264 71.7707 254.15 63.8961 240.55 58.8874ZM206.725 36.1476C216.025 27.4695 224.7 24.0679 228.65 26.5052C232.875 29.1033 234.5 39.6027 231.85 53.3967C231.675 54.3073 231.5 55.1912 231.275 56.0751C225.725 54.7359 220.1 53.7716 214.45 53.2359C211.2 48.2541 207.65 43.4865 203.8 39.0135C204.775 38.0225 205.725 37.085 206.725 36.1476ZM177.8 93.7873C179.075 96.1176 180.375 98.4478 181.75 100.724C177.85 100.269 173.975 99.5995 170.15 98.7157C171.25 94.8587 172.625 90.8679 174.225 86.7966C175.375 89.1537 176.55 91.4839 177.8 93.7873ZM170.225 61.5659C173.825 60.7088 177.65 60.0124 181.625 59.4767C180.3 61.6998 179 63.9764 177.775 66.2799C176.55 68.5566 175.35 70.8868 174.225 73.2438C172.65 69.2529 171.325 65.3424 170.225 61.5659ZM177.075 80.0202C178.725 76.324 180.525 72.7081 182.425 69.1458C184.325 65.5835 186.375 62.1283 188.525 58.7267C192.275 58.4321 196.1 58.2714 200 58.2714C203.9 58.2714 207.75 58.4321 211.475 58.7267C213.6 62.1015 215.625 65.5567 217.55 69.0922C219.475 72.6278 221.275 76.2436 222.975 79.9131C221.3 83.6093 219.5 87.252 217.575 90.8411C215.675 94.4034 213.65 97.8586 211.525 101.287C207.8 101.582 203.925 101.715 200 101.715C196.075 101.715 192.275 101.582 188.6 101.341C186.425 97.9389 184.375 94.457 182.45 90.8946C180.525 87.3323 178.75 83.7165 177.075 80.0202ZM222.225 93.7338C223.5 91.3768 224.7 88.993 225.875 86.5824C227.475 90.4661 228.875 94.4034 230.1 98.4478C226.225 99.3853 222.3 100.108 218.35 100.591C219.7 98.3407 220.975 96.0372 222.225 93.7338ZM225.825 73.2438C224.65 70.8868 223.45 68.5298 222.2 66.2263C220.975 63.9497 219.7 61.6998 218.375 59.4767C222.4 60.0124 226.25 60.7355 229.85 61.6194C228.7 65.5835 227.35 69.4404 225.825 73.2438ZM200.05 43.1115C202.675 46.1649 205.15 49.379 207.45 52.7003C202.5 52.4592 197.525 52.4592 192.575 52.7003C195.025 49.2451 197.55 46.031 200.05 43.1115ZM171.05 26.6927C175.25 24.0679 184.575 27.8177 194.4 37.1386C195.025 37.7278 195.65 38.3707 196.3 39.0135C192.425 43.4865 188.85 48.2541 185.575 53.2359C179.925 53.7716 174.325 54.7091 168.775 56.0215C168.45 54.6555 168.175 53.2627 167.9 51.8699C165.55 38.9064 167.1 29.1301 171.05 26.6927ZM164.925 97.2961C163.875 96.9747 162.85 96.6265 161.825 96.2515C156.5 94.457 150.45 91.6178 146.075 87.8948C143.55 86.0199 141.85 83.1272 141.375 79.8863C141.375 74.9848 149.275 68.7173 160.675 64.4586C162.1 63.9229 163.55 63.4408 165 62.9854C166.7 68.7976 168.75 74.5027 171.125 80.0202C168.725 85.6181 166.65 91.4035 164.925 97.2961ZM194.075 123.545C189.95 127.589 185.175 130.803 179.975 133C177.2 134.419 174 134.553 171.15 133.348C167.175 130.884 165.525 121.429 167.775 108.706C168.05 107.206 168.35 105.706 168.7 104.233C174.3 105.519 179.95 106.403 185.675 106.858C188.975 111.867 192.6 116.661 196.475 121.161C195.675 121.991 194.875 122.795 194.075 123.545ZM200.2 117.036C197.65 114.09 195.1 110.822 192.625 107.313C195.025 107.421 197.5 107.474 200 107.474C202.575 107.474 205.1 107.421 207.6 107.287C205.3 110.688 202.825 113.929 200.2 117.036ZM232.875 125.071C232.65 128.339 231.15 131.392 228.75 133.455C224.775 135.919 216.3 132.705 207.15 124.295C206.1 123.33 205.05 122.286 203.975 121.214C207.8 116.688 211.325 111.894 214.525 106.858C220.25 106.349 225.95 105.412 231.575 104.046C231.825 105.144 232.05 106.242 232.25 107.313C233.475 113.099 233.675 119.125 232.875 125.071ZM237.425 96.2783C236.725 96.5193 236.025 96.7604 235.3 96.9747C233.55 91.1357 231.4 85.4307 228.925 79.8863C231.325 74.4223 233.35 68.7976 235.05 63.039C236.35 63.4408 237.6 63.8693 238.8 64.2979C250.45 68.5833 258.625 74.958 258.625 79.8327C258.625 85.0825 249.9 91.8589 237.425 96.2783ZM200 92.2606C206.325 92.2606 211.45 86.7699 211.45 79.9934C211.45 73.217 206.325 67.7262 200 67.7262C193.675 67.7262 188.55 73.217 188.55 79.9934C188.55 86.7699 193.675 92.2606 200 92.2606Z" fill="#FAFAFA"/>
</svg>
