<svg width="400" height="160" viewBox="0 0 400 160" fill="none" xmlns="http://www.w3.org/2000/svg">
<rect width="400" height="160" fill="#080E20"/>
<path d="M262.548 74.211L205.804 17.4511C204.233 15.8816 202.103 15 199.882 15C197.662 15 195.532 15.8816 193.961 17.4511L182.163 29.2412L197.113 44.1915C204.965 41.5392 212.399 49.0579 209.704 56.8667L224.114 71.2772C234.047 67.8531 241.867 80.2729 234.406 87.7277C226.72 95.4147 214.033 86.8949 218.156 76.8923L204.707 63.4597V98.8185C212.048 102.457 211.166 110.963 207.341 114.779C205.473 116.646 202.939 117.695 200.297 117.695C197.656 117.695 195.122 116.646 193.253 114.779C188.155 109.671 190.041 101.166 196.518 98.5284V62.8358C190.482 60.3663 189.38 53.9155 191.109 49.7775L176.371 35.0217L137.452 73.9469C135.882 75.5174 135 77.6473 135 79.8681C135 82.0889 135.882 84.2188 137.452 85.7893L194.214 142.549C195.784 144.118 197.913 145 200.133 145C202.354 145 204.483 144.118 206.053 142.549L262.548 86.0534C264.118 84.4828 265 82.353 265 80.1322C265 77.9114 264.118 75.7815 262.548 74.211Z" fill="#FAFAFA"/>
</svg>
