<svg width="400" height="160" viewBox="0 0 400 160" fill="none" xmlns="http://www.w3.org/2000/svg">
<rect width="400" height="160" fill="#080E20"/>
<path d="M281.528 87.1761V91.5795C277.575 91.5795 274.805 92.4081 273.219 94.0653C271.656 95.7225 270.875 98.4924 270.875 102.375V113.739C270.875 117.006 270.555 119.835 269.916 122.226C269.301 124.617 268.283 126.594 266.862 128.156C265.442 129.719 263.548 130.879 261.18 131.636C258.813 132.394 255.889 132.773 252.409 132.773V125.812C255.155 125.812 257.31 125.375 258.872 124.499C260.458 123.646 261.571 122.332 262.21 120.557C262.873 118.781 263.205 116.509 263.205 113.739V99.5341C263.205 97.6875 263.441 96.0066 263.915 94.4915C264.412 92.9763 265.312 91.6742 266.614 90.5852C267.916 89.4962 269.762 88.6558 272.153 88.0639C274.568 87.4721 277.693 87.1761 281.528 87.1761ZM252.409 41.8636C255.889 41.8636 258.813 42.2424 261.18 43C263.548 43.7576 265.442 44.9176 266.862 46.4801C268.283 48.0426 269.301 50.0194 269.916 52.4105C270.555 54.8016 270.875 57.6307 270.875 60.8977V72.2614C270.875 76.1439 271.656 78.9138 273.219 80.571C274.805 82.2282 277.575 83.0568 281.528 83.0568V87.4602C277.693 87.4602 274.568 87.1643 272.153 86.5724C269.762 85.9806 267.916 85.1402 266.614 84.0511C265.312 82.9621 264.412 81.66 263.915 80.1449C263.441 78.6297 263.205 76.9489 263.205 75.1023V60.8977C263.205 58.1278 262.873 55.8551 262.21 54.0795C261.571 52.2803 260.458 50.9545 258.872 50.1023C257.31 49.25 255.155 48.8239 252.409 48.8239V41.8636ZM281.528 83.0568V91.5795H273.148V83.0568H281.528Z" fill="white"/>
<path d="M171.778 127.568C170.027 127.568 168.523 126.941 167.268 125.686C166.014 124.431 165.386 122.928 165.386 121.176C165.386 119.424 166.014 117.921 167.268 116.666C168.523 115.411 170.027 114.784 171.778 114.784C173.53 114.784 175.034 115.411 176.288 116.666C177.543 117.921 178.17 119.424 178.17 121.176C178.17 122.336 177.875 123.402 177.283 124.372C176.714 125.343 175.945 126.124 174.974 126.716C174.027 127.284 172.962 127.568 171.778 127.568ZM199.317 127.568C197.566 127.568 196.062 126.941 194.808 125.686C193.553 124.431 192.925 122.928 192.925 121.176C192.925 119.424 193.553 117.921 194.808 116.666C196.062 115.411 197.566 114.784 199.317 114.784C201.069 114.784 202.573 115.411 203.827 116.666C205.082 117.921 205.71 119.424 205.71 121.176C205.71 122.336 205.414 123.402 204.822 124.372C204.254 125.343 203.484 126.124 202.513 126.716C201.567 127.284 200.501 127.568 199.317 127.568ZM226.857 127.568C225.105 127.568 223.601 126.941 222.347 125.686C221.092 124.431 220.464 122.928 220.464 121.176C220.464 119.424 221.092 117.921 222.347 116.666C223.601 115.411 225.105 114.784 226.857 114.784C228.608 114.784 230.112 115.411 231.366 116.666C232.621 117.921 233.249 119.424 233.249 121.176C233.249 122.336 232.953 123.402 232.361 124.372C231.793 125.343 231.023 126.124 230.053 126.716C229.106 127.284 228.04 127.568 226.857 127.568Z" fill="white"/>
<path d="M117.693 87.4602V83.0568C121.647 83.0568 124.405 82.2282 125.967 80.571C127.554 78.9138 128.347 76.1439 128.347 72.2614V60.8977C128.347 57.6307 128.654 54.8016 129.27 52.4105C129.909 50.0194 130.939 48.0426 132.359 46.4801C133.78 44.9176 135.674 43.7576 138.041 43C140.409 42.2424 143.332 41.8636 146.812 41.8636V48.8239C144.066 48.8239 141.9 49.25 140.314 50.1023C138.751 50.9545 137.639 52.2803 136.976 54.0795C136.337 55.8551 136.017 58.1278 136.017 60.8977V75.1023C136.017 76.9489 135.768 78.6297 135.271 80.1449C134.798 81.66 133.91 82.9621 132.608 84.0511C131.306 85.1402 129.447 85.9806 127.033 86.5724C124.642 87.1643 121.528 87.4602 117.693 87.4602ZM146.812 132.773C143.332 132.773 140.409 132.394 138.041 131.636C135.674 130.879 133.78 129.719 132.359 128.156C130.939 126.594 129.909 124.617 129.27 122.226C128.654 119.835 128.347 117.006 128.347 113.739V102.375C128.347 98.4924 127.554 95.7225 125.967 94.0653C124.405 92.4081 121.647 91.5795 117.693 91.5795V87.1761C121.528 87.1761 124.642 87.4721 127.033 88.0639C129.447 88.6558 131.306 89.4962 132.608 90.5852C133.91 91.6742 134.798 92.9763 135.271 94.4915C135.768 96.0066 136.017 97.6875 136.017 99.5341V113.739C136.017 116.509 136.337 118.781 136.976 120.557C137.639 122.332 138.751 123.646 140.314 124.499C141.9 125.375 144.066 125.812 146.812 125.812V132.773ZM117.693 91.5795V83.0568H126.074V91.5795H117.693Z" fill="white"/>
</svg>
