<svg width="185" height="440" viewBox="0 0 185 440" fill="none" xmlns="http://www.w3.org/2000/svg">
<rect width="20.2186" height="20" transform="matrix(-1 0 0 1 185 0)" fill="#D9D9D9"/>
<rect width="20.2186" height="20" transform="matrix(-1 0 0 1 185 120)" fill="#D9D9D9"/>
<rect width="20.2186" height="20" transform="matrix(-1 0 0 1 185 240)" fill="#D9D9D9"/>
<rect width="20.2186" height="20" transform="matrix(-1 0 0 1 185 360)" fill="#D9D9D9"/>
<rect width="20.2186" height="20" transform="matrix(-1 0 0 1 185 60)" fill="#D9D9D9"/>
<rect width="20.2186" height="20" transform="matrix(-1 0 0 1 185 180)" fill="#D9D9D9"/>
<rect width="20.2186" height="20" transform="matrix(-1 0 0 1 185 300)" fill="#D9D9D9"/>
<rect width="20.2186" height="20" transform="matrix(-1 0 0 1 185 420)" fill="#D9D9D9"/>
<rect width="20.2186" height="20" transform="matrix(-1 0 0 1 128.388 0)" fill="#D9D9D9"/>
<rect width="20.2186" height="20" transform="matrix(-1 0 0 1 128.388 120)" fill="#D9D9D9"/>
<rect width="20.2186" height="20" transform="matrix(-1 0 0 1 128.388 240)" fill="#D9D9D9"/>
<rect width="20.2186" height="20" transform="matrix(-1 0 0 1 128.388 60)" fill="#D9D9D9"/>
<rect width="20.2186" height="20" transform="matrix(-1 0 0 1 128.388 180)" fill="#D9D9D9"/>
<rect width="20.2186" height="20" transform="matrix(-1 0 0 1 128.388 300)" fill="#D9D9D9"/>
<rect width="20.2186" height="20" transform="matrix(-1 0 0 1 20.2185 0)" fill="#D9D9D9"/>
<rect width="20.2186" height="20" transform="matrix(-1 0 0 1 73.7979 0)" fill="#D9D9D9"/>
<rect width="20.2186" height="20" transform="matrix(-1 0 0 1 73.7979 120)" fill="#D9D9D9"/>
<rect width="20.2186" height="20" transform="matrix(-1 0 0 1 20.2185 60)" fill="#D9D9D9"/>
<rect width="20.2186" height="20" transform="matrix(-1 0 0 1 73.7979 60)" fill="#D9D9D9"/>
<rect width="20.2186" height="20" transform="matrix(-1 0 0 1 73.7979 180)" fill="#D9D9D9"/>
</svg>
